<?xml version="1.0" encoding="UTF-8"?>
<svg xmlns="http://www.w3.org/2000/svg" viewBox="0 0 250 250" width="250" height="250">
<path d="M70.89 15.67C76.75 14.43 82.13 21.16 86.04 24.7C97.63 35.18 108.21 46.28 117.19 59.09C150.55 106.68 158.51 174.84 108.01 214.27C99.76 220.72 91.04 227 81.43 231.24C78.25 232.64 75.47 234.9 71.77 234.81C67.95 234.71 63.28 231.05 59.89 229.35C50.91 224.86 42.07 218.94 34.59 212.18C25.26 203.74 17.29 194.6 11.27 183.5C-12.9 138.96 6.96 84.19 36.59 47.83C43.75 39.04 51.72 31.46 60 23.74C62.89 21.06 66.94 16.5 70.89 15.67ZM236.75 61.49C238.4 60.23 239.24 57.9 241.39 57.21C244.09 56.35 248.15 57.74 248.91 60.77C249.49 63.05 248.69 65.33 248.27 67.53C247.31 72.5 246.61 85.82 241.71 87.97C239.39 88.98 236.8 88.16 234.76 86.97C229.75 84.06 220.07 79.43 216.22 75.54C213.64 72.94 213.86 67.95 217.48 66.26C219.61 65.26 222.26 66.07 224.5 65.75C222.45 58.86 215.93 52.74 210.83 47.94C194.81 32.86 168.03 26.15 146.91 33.22C140.08 35.5 133.58 38.44 127.47 42.24C124.8 43.9 122.53 46.39 119.75 47.82C117.31 44.8 114.88 41.77 112.44 38.75C117 32.74 128.61 27.51 135.51 24.73C160.37 14.71 192.22 16.81 213.57 34.2C219.15 38.75 224.43 43.71 228.74 49.51C231.44 53.13 233.49 58.56 236.75 61.49ZM72.75 30.2C69.05 31.77 65.37 35.92 62.54 38.78C56.43 44.92 50.57 51.08 45 57.73C16.69 91.52 1.97 143.02 25.82 182.89C32.97 194.84 43.8 204.88 55.58 212.2C59.03 214.35 62.99 217.81 67.03 218.45C67.03 198.83 67.03 179.21 67.03 159.59C62.07 160.57 54.28 167.56 49.73 170.48C47.37 172 44.74 174.69 41.75 174.75C37.07 174.84 34.03 168.98 37.14 165.38C40.7 161.24 53.71 153.91 58.9 150.17C60.89 148.74 65.7 146.78 66.77 144.57C67.74 142.6 67.03 138.92 67.03 136.75C67.03 130.39 68.17 122.74 66.75 116.56C63.79 117.29 61.03 120.03 58.47 121.72C52.85 125.43 47.3 129.21 41.73 133C38.22 135.39 32.79 137.58 30.47 132.29C28.14 126.99 34.24 124.31 37.61 121.83C44.43 116.84 51.55 112.02 58.6 107.34C60.81 105.88 65.17 104.12 66.61 101.87C67.8 99.99 67.04 95.93 67.03 93.75C67.02 87.08 67.04 80.42 67.03 73.75C67.02 69.43 66.52 63.9 72.34 63.71C78.32 63.52 78.17 68.82 78.18 73.25C78.2 80.08 78.17 86.92 78.17 93.75C78.17 95.88 77.39 99.89 78.48 101.75C79.77 103.97 84 105.7 86.08 107.19C93.09 112.19 100.3 117.01 107.48 121.76C110.99 124.09 117.01 127.22 114.7 132.46C112.44 137.56 107 135.38 103.63 133.14C97.92 129.37 92.29 125.46 86.62 121.63C84.34 120.09 81.12 116.85 78.38 116.75C77.1 123.11 78.17 130.74 78.17 137.25C78.17 139.25 77.46 142.92 78.6 144.64C79.88 146.56 83.09 148 84.98 149.28C90.53 153.04 96.01 156.9 101.48 160.76C103.74 162.36 107.07 163.75 108.52 166.25C110.68 169.98 107.48 174.95 103.25 174.77C96.13 174.48 84.63 159.71 78.18 159.75C78.18 179.25 78.18 198.75 78.18 218.25C82.1 218.23 90.55 211.69 93.92 209.19C108.14 198.65 119.99 185.74 126.24 168.95C141.13 128.98 123.01 85.47 97.34 54.4C90.63 46.28 81.61 35.91 72.75 30.2ZM165.25 57.13C172.09 55.79 172.85 62.31 172.85 67.25C172.85 74.58 172.85 81.92 172.85 89.25C172.85 92.1 172.01 96.53 173.07 99.19C173.83 101.1 177.85 103 179.48 104.28C184.65 108.33 193.54 113.54 197.75 117.99C200.43 120.83 199.59 126.52 195.63 127.8C191.7 129.07 188.49 126.36 185.74 124C180.58 119.56 174.52 115.2 168.85 111.42C166.51 109.86 162.04 107.5 161.12 104.66C159.73 100.37 160.9 84.7 160.9 79.25C160.9 74.05 158.6 58.44 165.25 57.13ZM145.89 178.75C147.03 175.25 148.17 171.75 149.31 168.25C152.75 168.08 156.79 169.01 160.15 169.7C163.78 170.45 168.08 170.04 171.75 169.86C189.51 168.96 206.42 158.81 217.84 145.61C223.9 138.62 228.4 129.56 230.9 120.72C232.11 116.4 232.04 108.82 234.12 105.37C236.14 102 241.57 101.77 243.93 104.82C245.84 107.29 244.99 111.43 244.45 114.25C242.88 122.41 240.51 129.79 237.15 137.36C226.05 162.34 200.76 178.43 174.15 181.3C167.58 182.01 151.43 182.28 145.89 178.75Z" fill="#00b987" fill-rule="evenodd" stroke="#00b987" stroke-width="0.25" stroke-linejoin="round"/>
</svg>